<svg width="252" height="252" viewBox="0 0 252 252" fill="none" xmlns="http://www.w3.org/2000/svg">
<circle opacity="0.75" cx="125.659" cy="125.659" r="91.9888" transform="rotate(-30 125.659 125.659)" fill="url(#paint0_radial_1_18)"/>
<g filter="url(#filter0_ii_1_18)">
<path fill-rule="evenodd" clip-rule="evenodd" d="M171.653 205.324C215.651 179.922 230.726 123.662 205.324 79.6646C179.922 35.667 123.662 20.5923 79.6647 45.9944C35.6671 71.3964 20.5924 127.656 45.9944 171.653C71.3964 215.651 127.656 230.726 171.653 205.324ZM169.932 202.342C212.283 177.891 226.794 123.737 202.343 81.3858C177.891 39.0347 123.737 24.5241 81.3859 48.9756C39.0348 73.427 24.5242 127.581 48.9756 169.932C73.4271 212.283 127.581 226.794 169.932 202.342Z" fill="#8997BB"/>
</g>
<defs>
<filter id="filter0_ii_1_18" x="33.6549" y="31.6548" width="184.008" height="187.008" filterUnits="userSpaceOnUse" color-interpolation-filters="sRGB">
<feFlood flood-opacity="0" result="BackgroundImageFix"/>
<feBlend mode="normal" in="SourceGraphic" in2="BackgroundImageFix" result="shape"/>
<feColorMatrix in="SourceAlpha" type="matrix" values="0 0 0 0 0 0 0 0 0 0 0 0 0 0 0 0 0 0 127 0" result="hardAlpha"/>
<feOffset dy="2"/>
<feGaussianBlur stdDeviation="0.5"/>
<feComposite in2="hardAlpha" operator="arithmetic" k2="-1" k3="1"/>
<feColorMatrix type="matrix" values="0 0 0 0 0.954583 0 0 0 0 0.960568 0 0 0 0 0.9875 0 0 0 0.75 0"/>
<feBlend mode="normal" in2="shape" result="effect1_innerShadow_1_18"/>
<feColorMatrix in="SourceAlpha" type="matrix" values="0 0 0 0 0 0 0 0 0 0 0 0 0 0 0 0 0 0 127 0" result="hardAlpha"/>
<feOffset dy="-2"/>
<feGaussianBlur stdDeviation="1"/>
<feComposite in2="hardAlpha" operator="arithmetic" k2="-1" k3="1"/>
<feColorMatrix type="matrix" values="0 0 0 0 0 0 0 0 0 0 0 0 0 0 0 0 0 0 0.1 0"/>
<feBlend mode="normal" in2="effect1_innerShadow_1_18" result="effect2_innerShadow_1_18"/>
</filter>
<radialGradient id="paint0_radial_1_18" cx="0" cy="0" r="1" gradientUnits="userSpaceOnUse" gradientTransform="translate(125.659 125.659) rotate(90) scale(91.9888)">
<stop stop-color="#A7E7FF"/>
<stop offset="1" stop-color="#BFE8F8" stop-opacity="0.5"/>
</radialGradient>
</defs>
</svg>
